<svg width="11" height="334" viewBox="0 0 11 334" fill="none" xmlns="http://www.w3.org/2000/svg">
<path d="M0.567566 0.896813C0.567566 0.401521 0.96908 0 1.46437 0V0C6.4173 0 10.4324 4.01514 10.4324 8.96806V329.068C10.4324 331.792 8.22411 334 5.5 334V334C2.77589 334 0.567566 331.792 0.567566 329.068V0.896813Z" fill="#4D0339"/>
<path d="M0.567566 241.284C0.567566 240.789 0.96908 240.387 1.46437 240.387V240.387C6.4173 240.387 10.4324 244.403 10.4324 249.356V329.067C10.4324 331.792 8.22411 334 5.5 334V334C2.77589 334 0.567566 331.792 0.567566 329.067V241.284Z" fill="url(#paint0_linear_12_6)"/>
<defs>
<linearGradient id="paint0_linear_12_6" x1="5.5" y1="240.387" x2="5.5" y2="334" gradientUnits="userSpaceOnUse">
<stop stop-color="#F3B04B"/>
<stop offset="1" stop-color="#FF0000"/>
</linearGradient>
</defs>
</svg>
