<svg width="10" height="334" viewBox="0 0 10 334" fill="none" xmlns="http://www.w3.org/2000/svg">
<path d="M0.135132 0.896813C0.135132 0.401521 0.536645 0 1.03194 0V0C5.98486 0 10 4.01514 10 8.96806V329.068C10 331.792 7.79167 334 5.06756 334V334C2.34346 334 0.135132 331.792 0.135132 329.068V0.896813Z" fill="#4D0339"/>
<path d="M0.135132 112.423C0.135132 111.927 0.536645 111.526 1.03194 111.526V111.526C5.98486 111.526 10 115.541 10 120.494V329.067C10 331.791 7.79167 334 5.06756 334V334C2.34346 334 0.135132 331.791 0.135132 329.067V112.423Z" fill="url(#paint0_linear_12_12)"/>
<defs>
<linearGradient id="paint0_linear_12_12" x1="5.06756" y1="111.526" x2="5.06756" y2="334" gradientUnits="userSpaceOnUse">
<stop stop-color="#F3B04B"/>
<stop offset="1" stop-color="#FF0000"/>
</linearGradient>
</defs>
</svg>
