<svg width="11" height="334" viewBox="0 0 11 334" fill="none" xmlns="http://www.w3.org/2000/svg">
<path d="M0.351379 0.896813C0.351379 0.401521 0.752893 0 1.24819 0V0C6.20111 0 10.2162 4.01514 10.2162 8.96806V329.068C10.2162 331.792 8.00792 334 5.28381 334V334C2.5597 334 0.351379 331.792 0.351379 329.068V0.896813Z" fill="#4D0339"/>
<path d="M0.351379 185.81C0.351379 185.315 0.752893 184.913 1.24819 184.913V184.913C6.20111 184.913 10.2162 188.928 10.2162 193.881V329.067C10.2162 331.791 8.00792 334 5.28381 334V334C2.5597 334 0.351379 331.791 0.351379 329.067V185.81Z" fill="url(#paint0_linear_12_9)"/>
<defs>
<linearGradient id="paint0_linear_12_9" x1="5.28381" y1="184.913" x2="5.28381" y2="334" gradientUnits="userSpaceOnUse">
<stop stop-color="#F3B04B"/>
<stop offset="1" stop-color="#FF0000"/>
</linearGradient>
</defs>
</svg>
