<svg width="11" height="334" viewBox="0 0 11 334" fill="none" xmlns="http://www.w3.org/2000/svg">
<path d="M0.783813 0.896813C0.783813 0.401521 1.18533 0 1.68062 0V0C6.63354 0 10.6487 4.01514 10.6487 8.96806V329.068C10.6487 331.792 8.44035 334 5.71625 334V334C2.99214 334 0.783813 331.792 0.783813 329.068V0.896813Z" fill="#4D0339"/>
<path d="M0.783813 290.402C0.783813 289.907 1.18533 289.505 1.68062 289.505V289.505C6.63354 289.505 10.6487 293.521 10.6487 298.473V329.955C10.6487 332.189 8.83768 334 6.6037 334H5.71625C2.99214 334 0.783813 331.792 0.783813 329.068V290.402Z" fill="url(#paint0_linear_12_3)"/>
<defs>
<linearGradient id="paint0_linear_12_3" x1="5.71625" y1="289.505" x2="5.71625" y2="334" gradientUnits="userSpaceOnUse">
<stop stop-color="#F3B04B"/>
<stop offset="1" stop-color="#FF0000"/>
</linearGradient>
</defs>
</svg>
