<svg width="100" height="100" viewBox="0 0 100 100" fill="none" xmlns="http://www.w3.org/2000/svg">
<g filter="url(#filter0_i_23_14)">
<path d="M72.1267 14.036L71.9186 13.8279L71.7105 14.036L12.3439 73.4026C8.09078 77.6557 8.09078 84.5514 12.3439 88.8046C16.5971 93.0577 23.4928 93.0577 27.7459 88.8045L87.1125 29.438L87.3206 29.2299L87.1125 29.0217L72.1267 14.036Z" fill="url(#paint0_linear_23_14)" stroke="#7E1DFB" stroke-width="0.588695"/>
<path d="M51.3041 34.9301L66.2829 49.9089L27.526 88.6658C23.3897 92.8021 16.6835 92.8021 12.5472 88.6658V88.6658C8.4109 84.5295 8.41089 77.8232 12.5472 73.6869L51.3041 34.9301Z" fill="url(#paint1_linear_23_14)" fill-opacity="0.3"/>
<rect x="74" y="8.41627" width="26.4913" height="6.47565" rx="3.23782" transform="rotate(45 74 8.41627)" fill="url(#paint2_linear_23_14)" stroke="#7E1DFB" stroke-width="0.588695"/>
</g>
<path d="M51.1153 35.088L54.618 38.5908" stroke="#7E1DFB" stroke-width="0.660487"/>
<path d="M42.9421 43.2612L46.4449 46.764" stroke="#7E1DFB" stroke-width="0.660487"/>
<path d="M34.769 51.4343L38.2718 54.9371" stroke="#7E1DFB" stroke-width="0.660487"/>
<path d="M26.5959 59.6075L30.0987 63.1103" stroke="#7E1DFB" stroke-width="0.660487"/>
<path d="M18.4228 67.7805L21.9256 71.2833" stroke="#7E1DFB" stroke-width="0.660487"/>
<defs>
<filter id="filter0_i_23_14" x="8.85971" y="9.46301" width="82.8257" height="82.8258" filterUnits="userSpaceOnUse" color-interpolation-filters="sRGB">
<feFlood flood-opacity="0" result="BackgroundImageFix"/>
<feBlend mode="normal" in="SourceGraphic" in2="BackgroundImageFix" result="shape"/>
<feColorMatrix in="SourceAlpha" type="matrix" values="0 0 0 0 0 0 0 0 0 0 0 0 0 0 0 0 0 0 127 0" result="hardAlpha"/>
<feOffset dx="3.30244"/>
<feComposite in2="hardAlpha" operator="arithmetic" k2="-1" k3="1"/>
<feColorMatrix type="matrix" values="0 0 0 0 0 0 0 0 0 0 0 0 0 0 0 0 0 0 0.05 0"/>
<feBlend mode="normal" in2="shape" result="effect1_innerShadow_23_14"/>
</filter>
<linearGradient id="paint0_linear_23_14" x1="79.4115" y1="21.737" x2="12.5521" y2="88.5964" gradientUnits="userSpaceOnUse">
<stop stop-color="#903FF8"/>
<stop offset="0.471079" stop-color="#D7B8FF"/>
<stop offset="0.9761" stop-color="#0040FF"/>
</linearGradient>
<linearGradient id="paint1_linear_23_14" x1="58.7935" y1="42.4195" x2="12.5472" y2="88.6658" gradientUnits="userSpaceOnUse">
<stop stop-color="white"/>
<stop offset="1" stop-color="#909090"/>
</linearGradient>
<linearGradient id="paint2_linear_23_14" x1="87.54" y1="8" x2="87.54" y2="15.0643" gradientUnits="userSpaceOnUse">
<stop stop-color="#903FF8"/>
<stop offset="1" stop-color="#903FF8"/>
</linearGradient>
</defs>
</svg>
