<svg width="122" height="346" viewBox="0 0 122 346" fill="none" xmlns="http://www.w3.org/2000/svg">
<g filter="url(#filter0_d_932_161)">
<g filter="url(#filter1_i_932_161)">
<path d="M28.9131 31.9349H28.0218V32.8262V287.054C28.0218 305.267 42.7866 320.032 61 320.032C79.2134 320.032 93.9783 305.267 93.9783 287.054V32.8262V31.9349H93.087H28.9131Z" fill="url(#paint0_linear_932_161)" stroke="#E4E4E4" stroke-width="1.78261"/>
<g filter="url(#filter2_d_932_161)">
<path d="M29 260L93 99.5V287C93 304.673 78.6731 319 61 319C43.3269 319 29 304.673 29 287V260Z" fill="url(#paint1_linear_932_161)" fill-opacity="0.6" shape-rendering="crispEdges"/>
<path d="M28.5356 259.815L28.5 259.904V260V287C28.5 304.949 43.0507 319.5 61 319.5C78.9493 319.5 93.5 304.949 93.5 287V99.5L92.5356 99.3148L28.5356 259.815Z" stroke="#E4E4E4" shape-rendering="crispEdges"/>
</g>
<rect x="20.8913" y="15.8913" width="80.2174" height="19.6087" rx="9.80435" fill="url(#paint2_linear_932_161)" stroke="#E4E4E4" stroke-width="1.78261"/>
</g>
<path d="M29 122H44" stroke="#E4E4E4" stroke-width="2"/>
<path d="M29 157H44" stroke="#E4E4E4" stroke-width="2"/>
<path d="M29 192H44" stroke="#E4E4E4" stroke-width="2"/>
<path d="M29 227H44" stroke="#E4E4E4" stroke-width="2"/>
<path d="M29 262H44" stroke="#E4E4E4" stroke-width="2"/>
</g>
<defs>
<filter id="filter0_d_932_161" x="0" y="0" width="122" height="345.923" filterUnits="userSpaceOnUse" color-interpolation-filters="sRGB">
<feFlood flood-opacity="0" result="BackgroundImageFix"/>
<feColorMatrix in="SourceAlpha" type="matrix" values="0 0 0 0 0 0 0 0 0 0 0 0 0 0 0 0 0 0 127 0" result="hardAlpha"/>
<feOffset dy="5"/>
<feGaussianBlur stdDeviation="10"/>
<feComposite in2="hardAlpha" operator="out"/>
<feColorMatrix type="matrix" values="0 0 0 0 0 0 0 0 0 0 0 0 0 0 0 0 0 0 0.1 0"/>
<feBlend mode="normal" in2="BackgroundImageFix" result="effect1_dropShadow_932_161"/>
<feBlend mode="normal" in="SourceGraphic" in2="effect1_dropShadow_932_161" result="shape"/>
</filter>
<filter id="filter1_i_932_161" x="20" y="15" width="82" height="305.923" filterUnits="userSpaceOnUse" color-interpolation-filters="sRGB">
<feFlood flood-opacity="0" result="BackgroundImageFix"/>
<feBlend mode="normal" in="SourceGraphic" in2="BackgroundImageFix" result="shape"/>
<feColorMatrix in="SourceAlpha" type="matrix" values="0 0 0 0 0 0 0 0 0 0 0 0 0 0 0 0 0 0 127 0" result="hardAlpha"/>
<feOffset dx="10"/>
<feComposite in2="hardAlpha" operator="arithmetic" k2="-1" k3="1"/>
<feColorMatrix type="matrix" values="0 0 0 0 0 0 0 0 0 0 0 0 0 0 0 0 0 0 0.05 0"/>
<feBlend mode="normal" in2="shape" result="effect1_innerShadow_932_161"/>
</filter>
<filter id="filter2_d_932_161" x="24" y="99.1294" width="74" height="228.871" filterUnits="userSpaceOnUse" color-interpolation-filters="sRGB">
<feFlood flood-opacity="0" result="BackgroundImageFix"/>
<feColorMatrix in="SourceAlpha" type="matrix" values="0 0 0 0 0 0 0 0 0 0 0 0 0 0 0 0 0 0 127 0" result="hardAlpha"/>
<feOffset dy="4"/>
<feGaussianBlur stdDeviation="2"/>
<feComposite in2="hardAlpha" operator="out"/>
<feColorMatrix type="matrix" values="0 0 0 0 0 0 0 0 0 0 0 0 0 0 0 0 0 0 0.25 0"/>
<feBlend mode="normal" in2="BackgroundImageFix" result="effect1_dropShadow_932_161"/>
<feBlend mode="normal" in="SourceGraphic" in2="effect1_dropShadow_932_161" result="shape"/>
</filter>
<linearGradient id="paint0_linear_932_161" x1="61" y1="32.8262" x2="61" y2="319.141" gradientUnits="userSpaceOnUse">
<stop stop-color="#F4F4F4"/>
<stop offset="1" stop-color="#EDEEF6"/>
</linearGradient>
<linearGradient id="paint1_linear_932_161" x1="61" y1="192" x2="61" y2="319" gradientUnits="userSpaceOnUse">
<stop stop-color="#ABADFF" stop-opacity="0.9"/>
<stop offset="1" stop-color="#595BDA" stop-opacity="0.9"/>
</linearGradient>
<linearGradient id="paint2_linear_932_161" x1="61" y1="15" x2="61" y2="36.3913" gradientUnits="userSpaceOnUse">
<stop stop-color="#F4F4F4"/>
<stop offset="1" stop-color="#EDEEF6"/>
</linearGradient>
</defs>
</svg>
